<?xml version="1.0" standalone="no"?>
<!DOCTYPE svg PUBLIC "-//W3C//DTD SVG 20010904//EN"
 "http://www.w3.org/TR/2001/REC-SVG-20010904/DTD/svg10.dtd">

<svg xmlns="http://www.w3.org/2000/svg" width='65' height='65' version="1.0" viewBox="0 0 700 700">
  <path d="M317 147a837 837 0 0 0-81 12c-57 17-99 46-120 81-11 18-15 42-12 63 1 5 0 6-2 9l-4 8c0 3 0 4 4 10 5 7 5 9 1 15-4 5-5 9-5 17 0 7 2 15 7 22l2 7-8 7c-8 5-9 6-9 11 0 4 1 5 7 9 6 3 6 4 6 8l2 6c3 5 4 12 5 27 1 16 3 22 7 28 16 22 50 39 107 53a502 502 0 0 0 259-12c51-12 53-13 77-29l21-12c7-4 8-5 9-9l4-12 2-16 1-13 2-9c0-4 1-5 3-7l4-2 3-2 1-7c-1-10-3-12-14-14l-5-1 2-4c3-6 1-13-5-27-3-7-3-10 0-7 2 2 7 2 9 1l2-6 4-9c5-8 4-11-4-17l-4-4 3-5 5-10c5-22-15-67-44-98-8-9-15-14-34-24-39-20-77-31-127-37-16-1-62-2-81-1zm67 5c76 7 137 30 174 65 8 8 11 12 30 51 11 22 11 36-1 48-6 6-5 8 5 13 6 4 8 5 6 8l-2 2c-1 0-4 6-4 9 0 2 0 2-2 2-12-4-14-3-18 4-4 6-6 7-11 5s-7-1-13 5-5 5-15 4c-2-1-3-1-7 3l-4 3h-8c-7-1-9-1-12 1-6 3-20 7-24 7l-9-2c-7-4-10-3-15 4-7 7-10 8-23 7-9 0-9 0-14 3l-5 3-8-3c-10-5-14-5-18-1-6 6-17 8-25 4-5-2-9-1-15 4l-6 4c-2 0-6-1-11-4-9-4-13-5-20-2l-10 2c-5 1-6 1-10-1-9-5-16-7-26-7h-10l-4-4c-5-4-5-4-13-4-10 0-12-1-16-4-3-3-7-3-13-2l-10 2c-5 0-5 0-8-3l-3-4-2-4c-2-2-5-2-11-3-10-1-12-2-14-7-2-4-5-6-11-7-5-1-7-2-8-7-2-5-3-6-11-5h-6l-8-8-9-10c-1-2 4-10 7-12s4-2 10 3c5 3 8 4 9 2 1-3-2-5-11-11-8-5-9-7-11-16-2-10 1-21 8-39 5-11 6-12 14-22 29-38 88-65 163-75 26-3 61-3 89-1zM119 346c0 2 5 3 10 2 5 0 5 0 7 3 3 6 4 7 9 8 6 1 10 3 13 8 3 4 4 5 13 6 8 1 10 2 12 7 4 7 8 8 22 6 6-1 7-1 12 1 4 2 8 3 14 3 10 1 13 2 17 6 4 3 4 3 9 3 11-2 14-2 23 3 10 6 12 6 26 3 12-3 18-2 25 2 6 4 10 4 16 0 7-4 14-5 22-3 7 2 10 2 16-3 7-5 10-6 18-2 7 4 10 4 17 1 9-4 13-4 19-3 7 2 10 1 16-6 7-7 9-8 13-4 6 4 8 4 12 2 3-2 7-2 14-3 7 0 10-1 11-2 1-2 4-2 10-3 6 0 10-1 13-3 4-2 7-3 11-3 7 0 11-1 14-6l2-3 12 1c12 0 13 0 15 2 4 5 5 14 2 19l-7 6c-3 2-6 5-6 7-1 4-5 5-10 3-6-3-9-2-17 1l-9 3c-11-2-10-2-17 2-8 5-11 6-19 3-4-2-7-1-13 4-3 3-6 5-8 5l-21 1c-17 1-17 1-25 4-9 4-14 4-23 1-9-2-16-2-21 2-5 3-13 4-30 2-13-2-14-2-18-1-5 2-6 2-11 1-7-1-10-1-14 2-3 2-6 2-10 0-5-3-7-3-14 1-6 2-7 2-19-1-10-3-20-4-22-2-2 3-4 2-6-2l-6-5h-8c-6 2-8 2-22-1-10-3-15-4-18-7-7-4-11-5-22-5-9 0-10 0-12-2l-9-5-12-8c-3-4-4-5-6-5-6 0-15-7-20-17-3-7-4-17-1-22s11-10 11-7zm6 54 10 6c2 3 6 5 7 5l6 3c10 6 14 7 23 7 8-1 8-1 15 3 13 7 14 7 20 7 4 0 7 1 11 3l6 2 7-2c7-3 8-2 10 4s3 7 10 3c5-2 6-2 11-2l15 4 9 2 5-2c5-2 5-2 15-1 9 1 10 1 14-1s5-2 9-1h10l26-1c19 1 20 1 26-1 8-3 16-4 24-2 7 3 11 2 19-2 8-3 9-3 14-2l10-1c3-2 6-2 14-1 11 0 16-1 19-7l2-3h8c12 2 14 1 20-2 5-3 7-3 11-3h7l9-3c7-3 7-3 12-2 7 3 10 2 14-1 4-4 5-4 11-2 5 1 5 1 7-1 3-3 6-3 10 0l3 3-6 5c-8 7-9 11-9 32l-1 20c-4 9-28 27-52 38-22 11-45 18-79 25l-33 8c-17 4-33 7-50 9-16 2-72 2-88 0a513 513 0 0 1-140-39c-4-3-11-10-11-12l-7-8c-9-11-10-15-10-34 0-13 0-16-2-20l-2-4 4 1 31 7c8 1 10 1 8-3 0-2-7-6-11-6l-4-1-13-3c-14-3-17-4-21-9-5-6-6-8-2-8s9-3 10-5c0-3 2-4 9-2z"/>
  <path d="M163 245c-3 3-3 10 0 19 5 16 8 18 40 35 14 7 35 13 57 17 31 4 91 4 91 0 0-3-8-4-42-4h-33l-23-4c-49-10-72-22-81-40-3-6-3-7-3-14 0-11-2-13-6-9zM569 324c-3 2-5 3-11 3l-18 5c-8 4-11 4-18 5-9 1-13 2-15 7-2 2-2 4-1 5 2 3 4 3 8-1 2-3 4-3 11-4 5 0 9-2 12-3 8-4 10-5 22-7 15-3 19-5 18-10-1-3-5-3-8 0zM141 325l2 3c2 4 6 6 17 10l14 6 9 4h8c2-3-1-5-15-11-21-10-35-14-35-12zM475 346c-3 2-11 4-23 6l-19 5-21 3c-16 1-25 3-26 4-2 1 0 3 4 5 3 1 4 1 10-1 7-3 9-3 16-2 8 0 10 0 21-4l24-6c16-3 19-4 19-8-1-3-3-4-5-2zM205 351c-2 3 0 6 5 6l12 5c9 4 12 5 19 6 6 0 9 1 11 3l3 2 1-2c2-3 3-6 1-7l-18-3c-7-1-12-3-22-9-5-2-10-3-12-1zM268 367c-3 3 0 4 12 5 24 1 32 0 32-4 0-2 1-2-24-2-14-1-19 0-20 1zM339 368l-2 3c0 2 2 3 5 3 5 1 25 0 27-1 2-2 1-4-2-4-6-1-26-2-28-1zM556 418c-2 2-2 5 2 6 2 1 2 1-4 4l-13 4c-6 0-8 1-15 6l-5 6c0 4 10 3 13-1 2-3 5-4 15-6l10-4 11-1 7 1 3-4c3-2 4-4 4-5h-20v-4c1-3 0-3-2-4l-6 2zM397 439c-4 2-7 10-6 14s3 4 6 0c1-3 4-4 9-5 4-1 5-5 1-8-3-2-7-2-10-1zM217 441c-4 0-7 3-7 5s3 3 13 3c7 0 8 0 8-2 0-4-6-7-14-6zM483 446l-19 4c-17 2-25 5-31 11-5 4-7 4-14 2-9-2-12-2-14 2s-3 9 0 10l5-2c4-2 7-3 13-1l7 2 8-6c6-6 10-8 23-11 5 0 12-2 16-4l12-2c4 1 7 0 9-3 1-3 0-5-3-5l-13 2zM180 449c-3 3 3 7 18 11l16 4a228 228 0 0 0 50 1c4-1 4-1 7 2l4 3c3-1 2-4-2-9s-6-5-12-2h-34l-20-3c-22-9-25-10-27-8zM353 463l-7 3c-6 6-10 8-16 8s-8-1-18-7-21-6-21 0c1 2 1 3 8 3 9 1 10 1 12 5l6 4c4 2 6 2 13 2 10-1 14-2 20-8 3-3 5-4 8-4l11 2c9 2 14 2 16-1 2-4 1-8-3-9l-8 2-7 2-5-2-5-2-4 2zM154 475c0 2 8 7 16 9l19 6a354 354 0 0 0 114 18 1021 1021 0 0 0-72-12c-15-2-24-5-41-12-18-8-36-12-36-9z"/>
</svg>
