<?xml version="1.0" standalone="no"?>
<!DOCTYPE svg PUBLIC "-//W3C//DTD SVG 20010904//EN"
 "http://www.w3.org/TR/2001/REC-SVG-20010904/DTD/svg10.dtd">
<svg version="1.0" xmlns="http://www.w3.org/2000/svg"
 width="70" height="70" viewBox="0 0 460 460"
 preserveAspectRatio="xMidYMid meet">
<metadata>
Created by potrace 1.16, written by Peter Selinger 2001-2019
</metadata>
<g transform="translate(0.000000,386.000000) scale(0.100000,-0.100000)"
stroke="none">
<path d="M2059 3207 c-61 -17 -131 -59 -165 -99 -83 -98 -105 -247 -53 -358
49 -103 138 -172 248 -191 l58 -11 13 -71 c15 -91 118 -604 127 -637 6 -22 0
-19 -46 22 -148 133 -322 153 -441 51 -47 -41 -64 -87 -58 -163 13 -187 273
-476 526 -586 l74 -32 -123 -62 c-68 -34 -130 -67 -137 -72 -7 -6 -31 -12 -54
-13 -74 -4 -105 -79 -53 -130 25 -26 45 -29 80 -16 30 12 104 -46 104 -82 1
-35 42 -77 75 -77 14 0 36 12 51 28 l26 28 69 -14 c56 -12 70 -19 74 -37 8
-33 57 -50 93 -33 39 18 52 60 31 101 -9 18 -19 66 -23 107 -3 41 -13 124 -21
183 -9 60 -14 111 -12 113 2 2 25 -18 50 -44 43 -43 47 -52 49 -102 1 -30 -1
-63 -5 -72 -12 -27 1 -48 29 -48 18 0 25 -5 25 -19 0 -10 7 -21 15 -25 18 -7
45 3 45 16 0 5 8 7 19 3 32 -10 51 5 51 39 0 17 3 48 6 68 l7 38 125 0 125 0
-6 -59 c-7 -62 5 -87 35 -76 10 4 17 -1 21 -14 8 -32 37 -38 58 -13 9 12 26
22 36 22 10 0 24 5 30 11 15 15 3 -91 -13 -116 -34 -48 -1 -115 56 -115 27 0
62 23 71 47 2 5 43 19 91 30 l86 20 11 -24 c12 -27 55 -46 83 -37 30 9 58 45
57 73 0 26 0 26 -9 4 -14 -35 -37 -28 -42 12 -4 34 12 49 27 25 3 -6 20 3 38
20 27 25 36 28 73 23 36 -5 46 -2 68 20 33 34 34 76 2 106 -14 13 -31 21 -38
18 -9 -4 -8 -6 3 -6 19 -1 34 -30 22 -42 -4 -4 -18 3 -29 16 -12 13 -19 27
-16 30 3 3 -8 5 -24 5 -17 0 -34 4 -39 9 -6 5 -66 37 -134 71 l-123 62 55 23
c269 109 547 422 547 616 0 27 -6 64 -14 83 -28 66 -135 126 -227 126 -56 0
-145 -34 -210 -80 l-57 -39 48 127 c81 218 149 472 150 554 0 19 6 29 23 33
45 13 127 78 156 124 41 63 65 160 57 225 -14 112 -92 216 -196 265 -81 37
-193 37 -272 -2 -31 -15 -75 -47 -97 -70 -47 -47 -91 -132 -91 -173 0 -25 -2
-26 -37 -21 -21 3 -87 13 -148 22 -209 32 -502 23 -651 -20 -18 -6 -22 -1 -27
27 -14 92 -90 188 -182 233 -62 31 -161 40 -226 22z m166 -56 c182 -82 190
-340 12 -428 -178 -89 -381 69 -338 262 15 64 75 139 136 166 52 24 138 24
190 0z m1550 0 c103 -47 161 -163 135 -271 -26 -107 -120 -182 -228 -182 -94
0 -161 38 -207 116 -61 105 -34 233 68 315 52 41 166 53 232 22z m-644 -605
c59 -13 177 -62 167 -71 -1 -1 -44 5 -95 15 -50 10 -121 21 -157 25 l-66 7 0
-54 c0 -101 -44 -214 -100 -262 -50 -42 -86 -31 -122 37 -19 35 -22 58 -23
145 0 113 4 107 -62 86 -46 -14 39 28 95 46 119 41 249 50 363 26z"/>
<path d="M1974 3051 c-57 -35 -68 -125 -21 -169 55 -52 120 -49 168 6 28 31
31 40 26 81 -10 87 -97 128 -173 82z"/>
<path d="M3714 3051 c-54 -33 -67 -116 -25 -165 36 -42 111 -54 151 -23 51 39
63 100 30 155 -33 53 -99 68 -156 33z"/>
</g>
</svg>
