<?xml version="1.0" standalone="no"?>
<!DOCTYPE svg PUBLIC "-//W3C//DTD SVG 20010904//EN"
 "http://www.w3.org/TR/2001/REC-SVG-20010904/DTD/svg10.dtd">

<svg xmlns="http://www.w3.org/2000/svg" width='100' height='100' version="1.0" viewBox="0 0 1908 1827">
  <path d="M774 1C667 8 580 31 491 78a879 879 0 0 0-233 176A937 937 0 0 0 30 677 965 965 0 0 0 5 999a874 874 0 0 0 346 629c96 76 218 138 332 169 115 32 236 38 362 18 107-17 208-54 298-108 61-36 108-73 142-113a933 933 0 0 0 194-478c3-5 7-6 21-7 17-1 24-3 35-6 22-8 34-19 38-36l8-66c12-107 16-137 19-143 0-2 3-6 6-9 8-10 12-22 12-39 0-11 2-17 6-19s12-2 24 2c13 3 26 3 37 1 13-3 17-7 18-20 1-14-5-22-22-32a77 77 0 0 0-61-10l-14 3c-1-1 8-12 15-19 8-7 18-12 28-15l29-4 25-2c4 0 4-2 4-10s-1-10-18-26a478 478 0 0 0-295-119l-92-1c-85 1-80 2-83-5l-9-27a921 921 0 0 0-133-275A590 590 0 0 0 774 1zm14 35 3 2-21 9c-81 32-130 60-177 99a754 754 0 0 0-141 169c-48 74-76 135-95 209-8 33-11 48-28 144l-9 42a658 658 0 0 1-197-136c-13-13-16-19-17-29 0-11 1-15 14-41a947 947 0 0 1 233-304c35-29 70-51 115-73 87-43 201-77 310-92l7-1 3 2zm148 35c54 7 125 35 181 73a634 634 0 0 1 206 237 551 551 0 0 1 41 117l-3 2-9-7c-29-23-44-30-121-58-26-10-32-13-36-17-2-1-5-7-7-13-9-21-17-32-35-50a428 428 0 0 0-579-45c-40 30-72 62-106 105-17 22-20 23-14 5 8-28 24-58 45-89 14-21 55-74 76-98 49-58 97-98 147-123 41-21 83-32 147-37l20-2h47zm187 339c16 3 24 5 64 19 96 33 116 42 138 56a1344 1344 0 0 1 73 55c9 6 19 10 31 12a780 780 0 0 1 138-4c121 8 198 34 258 84 5 4 8 8 8 11 0 2-12 0-21-4l-20-11c-37-22-68-35-103-41a1581 1581 0 0 0-129-15c-36 1-62 8-114 30l-29 12c-2 1-2 0-5-7-1-5-3-8-3-7-2 2-3 9-2 31 1 31 3 37 16 51l9 14c3 6 3 7 3 18 0 10 0 11-3 19l-7 18c-3 12-11 29-19 40-7 10-25 26-37 36-21 15-49 30-78 42-15 6-64 23-72 24-8 2-17 1-30-3a323 323 0 0 0-98-11h-39c-17-4-35-11-52-22-28-18-77-57-90-71a97 97 0 0 1-24-59l-7-40c-5-28-6-38-4-43 2-4 7-6 18-7 9-1 10-2 14-5l15-29 26-47c10-18 12-21 20-29 7-7 10-9 18-13 13-7 21-8 46-8 21 0 40-2 46-4l10-8c0-2-15-2-41-1l-54 6c-17 5-31 16-42 32a1420 1420 0 0 0-50 88l-1 2-6-2-15-7c-24-10-51-17-79-21a509 509 0 0 0-324 93c-4 2-6 2-11-3l-3-3 3-5 29-27c71-60 156-96 246-104 17-2 45-1 61 2l21 2c12 1 16-2 32-16 45-42 90-73 136-96a265 265 0 0 1 133-23zM116 586a1354 1354 0 0 0 204 143l2 3-1 38c-1 59-1 73-4 76-4 5-5 5-44 6l-45 2c-55 7-101 30-139 67-15 16-25 28-36 46l-18 24c-2 0-4-13-6-40-2-20-2-82 0-106 8-88 27-169 61-262l5-13 4 2 17 14zm1582 16c12 2 25 5 35 9 10 5 69 37 69 39a1852 1852 0 0 1-67 70l10-29c5-12 5-21 0-28-5-5-16-8-25-5s-20 17-34 45c-7 14-13 21-23 26l-28 8-95 25c-26 9-34 9-43 0-6-5-11-13-20-30l-7-11 2-4 5-6a5310 5310 0 0 0 92-86c16-12 34-18 65-21 30-3 51-3 64-2zm-947 29c29 5 53 17 78 39l21 18 15 12-2 3c-5 9-16 16-37 22-21 7-29 8-51 8l-27-1-11-1h-4l6 5c11 8 23 12 44 14 26 2 52-1 75-11 11-4 12-4 13 2 0 7-1 9-9 12-23 9-63 9-106 0-20-4-40-10-70-21l-43-16c-20-7-25-10-29-13l-2-3h14l15-1c0-2-10-9-16-12l-6-3h-16l-58 4c-40 4-50 4-50 2s11-11 20-17c30-17 72-30 130-37 47-7 83-8 106-4zm1087 30c3 1 8 4 10 7 9 8 7 13-11 25l-20 14-19 16c-12 12-17 15-31 16l-9 1a581 581 0 0 0 52 31l-1-9-1-9c2-4 16-10 27-11 25-4 58 13 58 30 0 4-1 5-4 7-8 7-16 7-38 2-19-5-27-5-33-1s-9 11-10 23c-3 33-14 46-45 54-16 4-15 4-19-4l-4-7c-5-3-7-1-49 38l-42 38c-1 0-3-1-4-4-6-9-5-17 12-90 6-27 7-30 11-37 4-8 10-14 18-17l5-3-2-9c-1-12-1-36 2-45 2-8 10-24 16-33 10-13 23-18 28-10 2 4 1 12-1 19-11 28-12 33-7 38 3 4 10 5 14 3l18-19 33-34c20-20 24-23 35-23 4 0 8 1 11 3zm-377 72c7 4 21 30 25 47 6 19 6 36 2 63-3 22-5 28-9 37-6 11-13 19-35 35-93 71-114 88-116 96-1 3-1 4 1 9l3 6 5-7c7-10 20-22 44-41a6586 6586 0 0 0 89-67l7-5 2 3c4 10 5 16 4 33 0 35-5 44-38 68l-80 60c-76 57-84 62-102 68-7 3-22 5-30 5-7 0-32-3-40-6-17-5-28-14-34-31l-10-64c-2-28 0-52 8-76 7-23 15-34 26-39 5-2 7-2 27-3l35-3c65-7 116-30 160-73 23-22 33-35 38-51 5-15 5-29 0-46l-2-10c0-8 12-13 20-8zm206 24-3 8c-5 10-9 24-17 55-11 42-13 57-15 84-1 26 1 52 7 68 5 16 10 24 25 38l7 9-14 11c-15 11-15 12-7 15 4 1 4 1 10-1a523 523 0 0 0 50-27c10-11 22-31 29-49 6-16 9-31 11-56 2-31 4-37 11-41 4-2 13-4 18-4 4 0 4 0 5 6 2 9 2 31 0 48-5 33-24 132-28 144-2 7-8 15-12 18-8 5-15 8-29 9s-23 0-34-5l-9-4-30 1-37-1c-14-4-24-12-30-23-5-11-12-42-14-63-1-15 0-108 2-119l8-32c16-58 21-75 23-78 4-6 8-7 25-8a912 912 0 0 0 48-3zm-86 11c2 7-2 23-11 48-10 27-18 58-22 86a862 862 0 0 0 1 143c-1 1-13-2-18-5-9-3-17-12-21-19-5-11-6-18-2-47 1-9 0-16-4-29-11-31-13-65-7-118 3-25 5-30 9-32s24-2 30 0l5 3a463 463 0 0 1-32 50c2 1 8-1 11-4 2-1 12-16 23-31 16-24 35-50 36-50l2 5zm-150 22c-3 9-8 15-16 22l-4 3v-5c1-6 6-15 14-28l6-10 1 6-2 12zm-494 37 14 14c1 2 1 2-12 17-23 24-21 23-20 26 2 4 5 3 20-7 18-12 24-15 33-16 10 0 17 2 27 8a558 558 0 0 0 41 22c2 2 2 2-2 12a1643 1643 0 0 1-28 59c-2 9-2 34 1 34 1 0 6-12 8-21 8-28 27-51 54-65l12-5 10-7c12-10 25-11 51-5l8 1-2 4-9 8c-8 8-16 21-20 32-4 14-5 25-5 50a4717 4717 0 0 0 8 147c-1 3-3 3-19 4-32 1-68-8-105-27-18-9-36-21-60-41-88-72-86-70-90-79l-3-11-5-14c-13-33-13-61 2-88 11-18 24-34 34-41 15-10 47-16 57-11zm-175 16-6 48c-2 6-6 13-9 15l-2 3v-5l6-19a302 302 0 0 0 12-50v8zm-371 10c24 6 42 16 59 32 26 26 40 60 47 109a519 519 0 0 1-7 131c-9 38-22 62-45 82-9 9-14 11-25 11-8 0-9-1-14-4-10-7-14-16-13-30 1-11 3-16 19-36 20-25 29-40 36-60 5-16 6-28 6-49a147 147 0 0 0-26-82c-6-9-20-23-29-28-14-9-32-13-53-15l-11-1 7-24c11-37 14-41 29-40l20 4zm-58 14c1 8 0 22-3 31-4 10-9 18-19 32-26 33-37 64-37 103 0 25 3 41 13 63 6 12 17 32 23 40 9 11 21 18 37 22 24 7 34 17 39 40 4 13 4 18 1 21-7 7-26 6-46 0-23-8-38-20-54-45-18-27-29-59-36-102-2-17-2-66 0-82 10-64 36-109 73-128l8-3 1 8zm-44-2-13 15a295 295 0 0 0-80 174c-3 21-4 65-1 83 6 35 19 75 34 101 17 28 39 48 66 62 21 10 41 15 64 14 25-1 42-9 59-27 9-9 15-18 23-34l8-16c11-17 22-21 34-12 5 4 13 15 16 23a2990 2990 0 0 1 45 251 595 595 0 0 0 62 161c0 5-61-20-100-42-75-40-140-90-205-156a1063 1063 0 0 1-234-355l-18-42c-9-20-12-29-12-40 0-15 4-25 19-47 29-44 60-73 98-92 23-11 49-19 74-21h61zm461 69c11 3 24 14 55 43a614 614 0 0 1 54 63l-25 1c-20 1-26 1-33 3-17 4-30 9-49 20-20 11-28 14-44 13l-15-3a314 314 0 0 1-57-32l9-19a192 192 0 0 1 75-86c10-5 20-6 30-3zm-372 8c7 2 12 6 18 13 12 17 20 41 23 65 0 6 0 8-2 13l-3 7c0 1-14-8-19-13-4-4-37-56-42-68-4-6-2-13 4-17 4-2 14-3 21 0zm239 90c0 6-1 7-5 8l-15-2c0-2 15-10 19-10l1 4zm18 35c9 3 16 8 26 17 15 14 25 19 39 23 9 2 20 3 30 1l24-8a312 312 0 0 1 145-12c10 6 89 61 97 69l6 5-4 1c-7 1-22 1-30-1-10-2-20-6-35-16-27-18-54-27-87-30-18-2-35 0-65 5-40 7-49 7-67 3l-133-42-7-3 3-2 24-12c8-2 27-1 34 2zm924 22c22 5 52 13 52 15 1 6-95 37-180 58-129 33-237 48-376 52-56 2-125-1-221-8-125-9-215-26-268-49-15-6-43-20-51-25-7-5-9-8-9-15 0-5 3-18 4-19l16 6 31 13c29 10 102 24 160 32l71 10 136 17a904 904 0 0 0 372-32 15667 15667 0 0 1 207-57 395 395 0 0 1 57 2zm-403 64 5 4c1 1 0 2-2 2l-22 2c0-3 5-11 6-11 2-1 8 1 13 3zm395 35c22 6 35 22 35 46 0 13-8 66-15 102-14 71-39 132-77 190-28 43-50 66-92 98-69 51-142 85-214 100a888 888 0 0 1-349-2c-41-8-153-34-163-37-26-9-50-27-65-50a397 397 0 0 1-54-214c0-36 0-38 2-48 5-21 11-38 24-56 18-27 42-45 72-55 21-7 53-12 104-16 11-1 54-2 151-2l166-1c145-5 176-9 332-38a598 598 0 0 1 143-17z"/>
  <path d="M1128 439c5 4 11 7 16 8h4l-2-2c-2-4-10-8-17-8l-5-1 4 3zM1237 470l-2 1c3 2 62 18 63 18l-12-9c-7-4-16-8-24-10h-26zM1122 515c-1 2 3 6 29 37l30 34c0-3-3-14-6-19-3-6-7-12-25-31-11-13-17-18-21-20-6-3-6-3-7-1zM1332 516a216 216 0 0 0 36 23l-4-10c-6-11-9-13-21-14l-11 1zM1218 537l3 34 3-5c3-9 2-23-4-31-2-1-2-1-2 2zM1291 552l-7 16c1 0 10-10 12-15 2-4 4-17 3-17l-8 16zM915 554l-7 14 13-10 2-17-8 13zM1094 550c-39 6-58 9-65 12a127 127 0 0 0-53 53l-2 3 3-1c4-1 9-5 15-13 12-16 29-30 44-36 22-8 48-8 67 0 10 4 22 13 32 23l13 11 3 3-1-5c-1-7-4-14-12-27s-10-19-12-25c0-2-1-3-2-3l-30 5zM1316 563c-11 4-12 5-21 25l-8 19 16-13c15-13 22-19 28-21 3-2 10-2 13-1s11 9 11 10l-8 1c-19 0-33 8-44 26-9 13-21 37-23 44v12c2 11 7 18 20 29 11 9 13 9 8 0l-1-5c1-1 5 1 9 3 20 11 29 11 50-3l18-10c6-3 11-7 12-11s-2-27-5-36c-6-25-18-48-29-59l-13-8c-6-3-8-3-17-4-8 0-11 0-16 2zm38 74 6 6-5 4c-8 6-12 6-16 0-4-7-1-16 5-16 3 0 5 1 10 6z"/>
  <path d="M1062 582c-12 3-20 8-39 23-24 20-42 40-55 60l-10 12-3 3 3 3c7 9 15 14 35 21 18 6 30 9 44 11a118 118 0 0 0 92-23c14-10 18-12 24-12 8 0 8 1 4 7l-4 5 6-2c5-3 6-4 8-7l2-7c0-2-20-38-29-51-8-13-22-27-33-33-18-11-31-14-45-10zm53 54c4 1 4 2 3 4-2 4-11 2-11-3 0-3 3-4 8-1zm-15 12c4 4 4 5 4 9 0 13-12 20-21 13-4-2-8-8-8-12 0-6 9-14 16-14 4 0 5 1 9 4zm-114 24c3 11 2 12-6 7l-5-4 8-12 3 9zM1231 660c-5 2-10 7-10 9 0 1 6 2 15 2 14 1 15 1 21 4 4 2 6 4 9 8l3 5-6 7-5 7c0 2 13 1 16-1 4-1 6-6 6-11 0-10-12-25-24-29-8-3-19-4-26-1zM1129 710c-6 4-13 11-16 16-2 4-1 3 10-7l12-12-6 3zM1163 736c-14 12-32 35-33 42-1 3 1 14 2 14l5-10 5-10 10 3c8 3 15 5 26 6 17 2 30 5 41 10 11 4 18 5 25 4 8-2 15-5 22-12 15-12 25-17 40-19 13-1 17-6 14-17-2-6-7-11-12-13l-3-1v18c-2 6-4 6-20 5-24-1-47 2-77 10-25 7-38 9-45 6-4-2-11-10-11-12l9-15 9-14c1-2-1-1-7 5zM1194 819c0 1 7 10 13 15 11 10 23 14 35 12 13-2 22-7 26-15 2-5 4-12 2-12l-13 4c-21 6-27 6-49-1a445 445 0 0 1-14-3zM1756 777l-10 50 12-13c3-6 5-16 5-21-1-6-5-17-6-17l-1 1zM1283 1013c-10 5-14 8-20 14-4 5-12 17-10 18 0 1 11-6 18-12 8-7 23-25 20-25l-8 4z"/>
</svg>